<svg xmlns="http://www.w3.org/2000/svg" width="32" height="32" viewBox="0 0 32 32"><title>rst050 - Light</title><g id="rst050"><g id="Light-10" data-name="Light"><path d="M31,28a4.528,4.528,0,0,0-3.126,1.219,2.648,2.648,0,0,1-3.756,0,4.616,4.616,0,0,0-6.251,0,2.64,2.64,0,0,1-3.748,0,4.61,4.61,0,0,0-6.247,0,2.64,2.64,0,0,1-3.748,0A4.52,4.52,0,0,0,1,28a1,1,0,0,0,0,2,2.583,2.583,0,0,1,1.874.781A4.523,4.523,0,0,0,6,32a4.522,4.522,0,0,0,3.125-1.22,2.64,2.64,0,0,1,3.747,0,4.611,4.611,0,0,0,6.248,0A2.585,2.585,0,0,1,20.992,30a2.62,2.62,0,0,1,1.878.781,4.618,4.618,0,0,0,6.252,0A2.622,2.622,0,0,1,31,30a1,1,0,0,0,0-2Z"/><path d="M31,24a4.528,4.528,0,0,0-3.126,1.219,2.648,2.648,0,0,1-3.756,0A4.532,4.532,0,0,0,21,24V4a2,2,0,0,1,4,0V9H24a1,1,0,0,0,0,2h7a1,1,0,0,0,0-2H27V4a4,4,0,0,0-8,0V9H15V4A4,4,0,0,0,7,4V9H1a1,1,0,0,0,0,2H7V25.8A2.328,2.328,0,0,1,6,26a2.584,2.584,0,0,1-1.873-.78A4.52,4.52,0,0,0,1,24a1,1,0,0,0,0,2,2.583,2.583,0,0,1,1.874.781A4.523,4.523,0,0,0,6,28a4.522,4.522,0,0,0,3.125-1.22,2.64,2.64,0,0,1,3.747,0,4.611,4.611,0,0,0,6.248,0A2.585,2.585,0,0,1,20.992,26a2.62,2.62,0,0,1,1.878.781,4.618,4.618,0,0,0,6.252,0A2.622,2.622,0,0,1,31,26a1,1,0,0,0,0-2ZM9,16H19v4H9ZM9,4a2,2,0,0,1,4,0V9H12a1,1,0,0,0,0,2h7v3H9Zm6.992,22a2.584,2.584,0,0,1-1.873-.78A4.519,4.519,0,0,0,11,24a4.273,4.273,0,0,0-2,.453V22H19v2.451a6.513,6.513,0,0,0-1.133.768A2.583,2.583,0,0,1,15.992,26Z"/></g></g></svg>