<svg xmlns="http://www.w3.org/2000/svg" width="32" height="32" viewBox="0 0 32 32"><title>soc030 - Light</title><g id="soc030"><g id="Light-10" data-name="Light"><path d="M29.8,4.741a1,1,0,0,0-1.292-.575L2.5,14.156a1,1,0,0,0,.072,1.892l6.41,1.915,2.367,8.029a1,1,0,0,0,1.241.677.974.974,0,0,0,.443-.3l.016.009L16.572,22.5l6.808,5.519a1,1,0,0,0,1.606-.562L29.847,5.314l-.018,0A.975.975,0,0,0,29.8,4.741Zm-6.423,20.7-7.594-6.155L22.8,12.751a1,1,0,1,0-1.364-1.463l-7.855,7.321a.971.971,0,0,0-.259.443l-.015,0-.98,3.191-1.58-5.361a1,1,0,0,0-.673-.676l-4.119-1.23L27.5,6.7Z"/></g></g></svg>