<?xml version="1.0" encoding="UTF-8" standalone="no"?>
<svg
   xmlns:dc="http://purl.org/dc/elements/1.1/"
   xmlns:cc="http://creativecommons.org/ns#"
   xmlns:rdf="http://www.w3.org/1999/02/22-rdf-syntax-ns#"
   xmlns:svg="http://www.w3.org/2000/svg"
   xmlns="http://www.w3.org/2000/svg"
   xmlns:sodipodi="http://sodipodi.sourceforge.net/DTD/sodipodi-0.dtd"
   xmlns:inkscape="http://www.inkscape.org/namespaces/inkscape"
   inkscape:export-ydpi="768"
   inkscape:export-xdpi="768"
   inkscape:export-filename="E:\S  Y  N  T  X  Y\Dokument Desain\CARLOS\Export\9 - Law.png"
   sodipodi:docname="10 - Thief.svg"
   inkscape:version="1.0 (4035a4fb49, 2020-05-01)"
   id="svg979"
   version="1.1"
   viewBox="0 0 16.933334 16.933333"
   height="48pt"
   width="48pt">
  <defs
     id="defs973" />
  <sodipodi:namedview
     inkscape:snap-nodes="false"
     inkscape:bbox-nodes="true"
     inkscape:snap-bbox="true"
     inkscape:document-rotation="0"
     inkscape:window-maximized="1"
     inkscape:window-y="-8"
     inkscape:window-x="-8"
     inkscape:window-height="715"
     inkscape:window-width="1366"
     units="pt"
     showgrid="false"
     inkscape:current-layer="layer1"
     inkscape:document-units="pt"
     inkscape:cy="32"
     inkscape:cx="32"
     inkscape:zoom="8.203125"
     inkscape:pageshadow="2"
     inkscape:pageopacity="0.0"
     borderopacity="1.0"
     bordercolor="#666666"
     pagecolor="#ffffff"
     id="base">
    <inkscape:grid
       id="grid1526"
       type="xygrid" />
    <sodipodi:guide
       inkscape:locked="false"
       id="guide1528"
       orientation="56.666615,0"
       position="0.97013909,15.963209" />
    <sodipodi:guide
       inkscape:locked="false"
       id="guide1530"
       orientation="0,56.666667"
       position="0.97013909,0.97016731" />
    <sodipodi:guide
       inkscape:locked="false"
       id="guide1532"
       orientation="-56.666615,0"
       position="15.963195,0.97016731" />
    <sodipodi:guide
       inkscape:locked="false"
       id="guide1534"
       orientation="0,-56.666667"
       position="15.963195,15.963209" />
  </sodipodi:namedview>
  <metadata
     id="metadata976">
    <rdf:RDF>
      <cc:Work
         rdf:about="">
        <dc:format>image/svg+xml</dc:format>
        <dc:type
           rdf:resource="http://purl.org/dc/dcmitype/StillImage" />
        <dc:title></dc:title>
      </cc:Work>
    </rdf:RDF>
  </metadata>
  <g
     transform="translate(0,-280.06668)"
     id="layer1"
     inkscape:groupmode="layer"
     inkscape:label="Layer 1">
    <path
       id="path1426"
       style="color:#000000;font-style:normal;font-variant:normal;font-weight:normal;font-stretch:normal;font-size:medium;line-height:normal;font-family:sans-serif;font-variant-ligatures:normal;font-variant-position:normal;font-variant-caps:normal;font-variant-numeric:normal;font-variant-alternates:normal;font-variant-east-asian:normal;font-feature-settings:normal;font-variation-settings:normal;text-indent:0;text-align:start;text-decoration:none;text-decoration-line:none;text-decoration-style:solid;text-decoration-color:#000000;letter-spacing:normal;word-spacing:normal;text-transform:none;writing-mode:lr-tb;direction:ltr;text-orientation:mixed;dominant-baseline:auto;baseline-shift:baseline;text-anchor:start;white-space:normal;shape-padding:0;shape-margin:0;inline-size:0;clip-rule:nonzero;display:inline;overflow:visible;visibility:visible;isolation:auto;mix-blend-mode:normal;color-interpolation:sRGB;color-interpolation-filters:linearRGB;solid-color:#000000;solid-opacity:1;vector-effect:none;fill:#000000;fill-opacity:1;fill-rule:nonzero;stroke:none;stroke-width:0.650105;stroke-linecap:round;stroke-linejoin:round;stroke-miterlimit:4;stroke-dasharray:none;stroke-dashoffset:0;stroke-opacity:1;color-rendering:auto;image-rendering:auto;shape-rendering:auto;text-rendering:auto;enable-background:accumulate;stop-color:#000000"
       d="m 8.4720842,281.03718 c -0.9540796,0 -1.6380258,0.17215 -2.1261728,0.46092 -0.488147,0.28878 -0.7648347,0.69984 -0.8900835,1.09705 -0.1117852,0.35451 -0.113026,0.69534 -0.082534,0.9688 0.9775717,-0.11155 2.044337,-0.16291 3.1102128,-0.15998 1.0658623,0.002 2.1262893,0.0596 3.0924423,0.17205 0.03016,-0.2751 0.0287,-0.61917 -0.08444,-0.97642 -0.126117,-0.39821 -0.403247,-0.80977 -0.891989,-1.0996 -0.488738,-0.28982 -1.1732035,-0.46282 -2.1274378,-0.46282 z m 0.00885,3.01689 c -0.2898233,-8.1e-4 -0.5783946,0.007 -0.8665925,0.0152 -0.1380687,0.1145 -0.2484951,0.43389 -0.2323631,0.81771 0.014202,0.33792 0.1331484,0.68104 0.2425219,0.85961 0.2514239,-0.006 0.5038269,-0.0111 0.7567595,-0.0111 0.015897,0 0.031758,-4.6e-4 0.047618,-6.6e-4 0.00553,0 0.010934,0 0.016512,0 3.255e-4,2e-5 9.754e-4,0 0.00135,0 0.012322,2e-5 0.024509,-6.7e-4 0.036819,-6.3e-4 0.2480638,6.7e-4 0.4935563,0.009 0.7396238,0.0152 0.1102986,-0.1776 0.2320424,-0.52234 0.2463279,-0.86216 0.01602,-0.38092 -0.092583,-0.69839 -0.2291873,-0.81516 -0.2526954,-0.007 -0.5049977,-0.0171 -0.7593026,-0.0178 z m -1.65002,0.0495 c -0.2446473,0.0138 -0.4890341,0.0269 -0.7262867,0.0469 -0.088836,0.24256 -0.123406,0.61903 -0.076182,0.96881 0.037041,0.27438 0.1270302,0.52571 0.2349024,0.69391 0.2091031,-0.0157 0.4225257,-0.0259 0.6361362,-0.0369 -0.1029888,-0.26391 -0.1549328,-0.56198 -0.1676065,-0.86342 -0.011425,-0.27095 0.011671,-0.55546 0.099045,-0.80947 z m 3.1895738,0.001 c 0.08748,0.25367 0.11041,0.53773 0.09905,0.80818 -0.01272,0.30218 -0.06532,0.60098 -0.1695103,0.86533 0.1993803,0.01 0.3995963,0.0199 0.5948703,0.0343 0.107744,-0.1682 0.197895,-0.41914 0.234903,-0.69327 0.04732,-0.35054 0.01057,-0.72821 -0.07872,-0.97071 -0.222141,-0.0184 -0.45193,-0.0307 -0.680578,-0.0439 z m 1.376396,0.11622 c 0.0654,0.31175 0.07116,0.65292 0.02603,0.98722 -0.0313,0.23185 -0.08647,0.46024 -0.17459,0.66979 0.469762,0.0484 0.927371,0.10492 1.349731,0.1784 0.215153,-0.5307 0.282571,-1.01766 0.187286,-1.63352 -0.422315,-0.0821 -0.896556,-0.14629 -1.388455,-0.20189 z m -5.9868013,0.002 c -0.4449994,0.0518 -0.8750277,0.11155 -1.2640202,0.18729 -0.085028,0.58622 0.028183,1.06135 0.2571194,1.62144 0.3666158,-0.062 0.7567398,-0.11069 1.1560926,-0.153 -0.088738,-0.20969 -0.1445344,-0.43838 -0.1758561,-0.67042 -0.045038,-0.33361 -0.038896,-0.67406 0.026659,-0.98531 z m 3.0708515,2.16109 c -1.4524727,-0.004 -2.9076272,0.10443 -4.094893,0.31426 -0.018563,0.15969 -0.029841,0.32131 -0.029841,0.48503 0,1.71986 1.0638377,3.1929 2.5667678,3.80414 -0.6637882,0.22993 -1.2670068,0.59645 -1.7750869,1.06403 h 6.6369059 c -0.508008,-0.46758 -1.111279,-0.8341 -1.775091,-1.06403 1.502361,-0.61127 2.564864,-2.0843 2.564864,-3.80414 0,-0.16018 -0.01192,-0.31824 -0.02984,-0.47424 -1.168229,-0.20598 -2.612549,-0.32106 -4.0637907,-0.32505 z m -2.8003987,1.09451 2.2055281,0.59233 c -0.014362,0.0591 0.00553,0.12685 -0.055235,0.19173 -0.097694,0.1043 -0.3198686,0.21817 -0.5783627,0.32187 -0.8387648,-0.23919 -1.2888639,-0.63164 -1.5719326,-1.10593 z m 5.5696905,0 c -0.283049,0.47427 -0.730727,0.86674 -1.5693905,1.10593 -0.2584979,-0.10368 -0.4806714,-0.21752 -0.5783652,-0.32187 -0.060739,-0.0649 -0.040861,-0.13267 -0.055235,-0.19173 z m -6.7016583,5.22369 c -0.2435391,0.31445 -0.4501617,0.65499 -0.615187,1.01452 H 12.99929 c -0.1651,-0.36017 -0.371567,-0.70051 -0.615187,-1.01505 z m -0.8615149,1.66271 c -0.1295954,0.4323 -0.2019615,0.88237 -0.2018731,1.3384 a 0.32508485,0.32508485 0 0 0 0.3237839,0.32633 h 9.3128724 a 0.32508485,0.32508485 0 0 0 0.326318,-0.32633 c -8.7e-5,-0.45602 -0.07284,-0.90611 -0.202519,-1.33894 z" />
  </g>
</svg>
