<svg xmlns="http://www.w3.org/2000/svg" width="32" height="32" viewBox="0 0 32 32"><title>soc009 - Light</title><g id="soc009"><g id="Light-9" data-name="Light"><path d="M16,29.691a13.536,13.536,0,0,1-7.106-2L4.481,29.105a1,1,0,0,1-1.253-1.269L4.646,23.6A13.69,13.69,0,0,1,16,2.309H16a13.691,13.691,0,0,1,0,27.382Zm-6.963-4.1a1,1,0,0,1,.554.167A11.549,11.549,0,0,0,16,27.691,11.691,11.691,0,0,0,16,4.309H16A11.69,11.69,0,0,0,6.562,22.851a1,1,0,0,1,.139.905L5.75,26.6l2.984-.957A.978.978,0,0,1,9.04,25.594ZM22.959,20.94a2.983,2.983,0,0,0,.2-1.661c-.085-.148-.316-.232-.667-.408s-2.057-1.021-2.379-1.133a.666.666,0,0,0-.857.26,14.12,14.12,0,0,1-.933,1.239.751.751,0,0,1-.841.134,8.789,8.789,0,0,1-2.8-1.732,10.651,10.651,0,0,1-1.937-2.414c-.2-.352-.021-.555.14-.745.176-.219.344-.374.52-.578a2.1,2.1,0,0,0,.387-.549.716.716,0,0,0-.051-.648c-.084-.177-.785-1.895-1.073-2.591-.232-.555-.408-.576-.759-.591-.119-.006-.252-.014-.4-.014a1.731,1.731,0,0,0-1.221.43A3.829,3.829,0,0,0,9.07,12.853a6.842,6.842,0,0,0,1.419,3.611c.175.232,2.435,3.808,5.945,5.265,2.743,1.141,3.558,1.034,4.182.9a3.367,3.367,0,0,0,2.343-1.69Z"/></g></g></svg>